<svg width="313" height="457" viewBox="0 0 313 457" fill="none" xmlns="http://www.w3.org/2000/svg">
<rect x="17" y="17.083" width="63" height="63" rx="7.5" stroke="#1D1D1D"/>
<rect x="17" y="17.083" width="63" height="63" rx="7.5" stroke="url(#paint0_linear_310_1241)"/>
<rect x="17" y="305.083" width="63" height="63" rx="7.5" stroke="#1D1D1D"/>
<rect x="17" y="305.083" width="63" height="63" rx="7.5" stroke="url(#paint1_linear_310_1241)"/>
<rect x="17" y="89.083" width="63" height="135" rx="7.5" stroke="#1D1D1D"/>
<rect x="161" y="17.083" width="63" height="63" rx="7.5" stroke="#1D1D1D"/>
<rect x="161" y="17.083" width="63" height="63" rx="7.5" stroke="url(#paint2_linear_310_1241)"/>
<rect x="161" y="305.083" width="63" height="63" rx="7.5" stroke="#1D1D1D"/>
<rect x="161" y="305.083" width="63" height="63" rx="7.5" stroke="url(#paint3_linear_310_1241)"/>
<rect x="161" y="377.083" width="63" height="63" rx="7.5" stroke="#1D1D1D"/>
<rect x="161" y="377.083" width="63" height="63" rx="7.5" stroke="url(#paint4_linear_310_1241)"/>
<rect x="161" y="89.083" width="63" height="63" rx="7.5" stroke="#1D1D1D"/>
<rect x="89" y="233.083" width="135" height="63" rx="7.5" stroke="#1D1D1D"/>
<g filter="url(#filter0_d_310_1241)">
<rect x="88.5" y="16.583" width="64" height="64" rx="8" fill="#1D1D1D"/>
<rect x="89" y="17.083" width="63" height="63" rx="7.5" stroke="url(#paint5_linear_310_1241)"/>
</g>
<path d="M125 41.833H129.5" stroke="white" stroke-width="1.5" stroke-linecap="round" stroke-linejoin="round"/>
<path d="M127.25 39.583V44.083" stroke="white" stroke-width="1.5" stroke-linecap="round" stroke-linejoin="round"/>
<path d="M111.405 56.8321C112.327 55.2361 113.653 53.9108 115.25 52.9894C116.846 52.068 118.657 51.583 120.5 51.583C122.343 51.583 124.154 52.0681 125.751 52.9895C127.347 53.911 128.673 55.2363 129.595 56.8323" stroke="white" stroke-width="1.5" stroke-linecap="round" stroke-linejoin="round"/>
<path d="M126.13 47.6626C125.729 48.7455 125.024 49.6896 124.099 50.3814C123.174 51.0732 122.07 51.4834 120.918 51.5626C119.766 51.6418 118.615 51.3867 117.605 50.828C116.594 50.2692 115.766 49.4306 115.221 48.4128C114.675 47.395 114.435 46.2413 114.529 45.0904C114.624 43.9395 115.048 42.8403 115.752 41.9248C116.456 41.0093 117.409 40.3165 118.497 39.9296C119.585 39.5427 120.762 39.4782 121.886 39.7438" stroke="white" stroke-width="1.5" stroke-linecap="round" stroke-linejoin="round"/>
<rect x="89" y="161.083" width="63" height="63" rx="7.5" stroke="#1D1D1D"/>
<rect x="89" y="161.083" width="63" height="63" rx="7.5" stroke="url(#paint6_linear_310_1241)"/>
<rect x="89" y="305.083" width="63" height="63" rx="7.5" stroke="#1D1D1D"/>
<rect x="17" y="377.083" width="135" height="63" rx="7.5" stroke="#1D1D1D"/>
<rect x="89" y="89.083" width="63" height="63" rx="7.5" stroke="#1D1D1D"/>
<rect x="89" y="89.083" width="63" height="63" rx="7.5" stroke="url(#paint7_linear_310_1241)"/>
<rect x="233" y="17.083" width="63" height="135" rx="7.5" stroke="#1D1D1D"/>
<rect x="233" y="161.083" width="63" height="63" rx="7.5" stroke="#1D1D1D"/>
<rect x="233" y="161.083" width="63" height="63" rx="7.5" stroke="url(#paint8_linear_310_1241)"/>
<rect x="233" y="305.083" width="63" height="63" rx="7.5" stroke="#1D1D1D"/>
<g filter="url(#filter1_d_310_1241)">
<rect x="232.5" y="376.583" width="64" height="64" rx="8" fill="#1D1D1D"/>
<rect x="233" y="377.083" width="63" height="63" rx="7.5" stroke="url(#paint9_linear_310_1241)"/>
</g>
<path d="M256.591 405.583H273.5" stroke="white" stroke-width="1.5" stroke-linecap="round" stroke-linejoin="round"/>
<path d="M269 400.333L266 416.833" stroke="white" stroke-width="1.5" stroke-linecap="round" stroke-linejoin="round"/>
<path d="M263 400.333L260 416.833" stroke="white" stroke-width="1.5" stroke-linecap="round" stroke-linejoin="round"/>
<path d="M255.5 411.583H272.409" stroke="white" stroke-width="1.5" stroke-linecap="round" stroke-linejoin="round"/>
<rect x="233" y="233.083" width="63" height="63" rx="7.5" stroke="#1D1D1D"/>
<g filter="url(#filter2_d_310_1241)">
<rect x="161" y="161.083" width="63" height="63" rx="7.5" fill="#1D1D1D" stroke="url(#paint10_linear_310_1241)"/>
<path d="M193.7 196.983L190.1 200.583M190.1 200.583L193.7 204.183M190.1 200.583H197.3C199.21 200.583 201.041 199.824 202.391 198.474C203.741 197.124 204.5 195.293 204.5 193.383M191.3 187.783L194.9 184.183M194.9 184.183L191.3 180.583M194.9 184.183H187.7C185.79 184.183 183.959 184.942 182.609 186.292C181.259 187.642 180.5 189.473 180.5 191.383" stroke="white" stroke-width="1.5" stroke-linecap="round" stroke-linejoin="round"/>
</g>
<g filter="url(#filter3_d_310_1241)">
<rect x="16.5" y="232.583" width="64" height="64" rx="8" fill="#1D1D1D"/>
<rect x="17" y="233.083" width="63" height="63" rx="7.5" stroke="url(#paint11_linear_310_1241)"/>
</g>
<path d="M39.4995 262.333H43.9995V272.083H39.4995C39.3005 272.083 39.1098 272.004 38.9691 271.863C38.8285 271.723 38.7495 271.532 38.7495 271.333V263.083C38.7495 262.884 38.8285 262.693 38.9691 262.553C39.1098 262.412 39.3005 262.333 39.4995 262.333V262.333Z" stroke="white" stroke-width="1.5" stroke-linecap="round" stroke-linejoin="round"/>
<path d="M43.9995 262.333L47.7495 254.833C48.1434 254.833 48.5335 254.911 48.8975 255.061C49.2615 255.212 49.5922 255.433 49.8708 255.712C50.1493 255.99 50.3703 256.321 50.5211 256.685C50.6719 257.049 50.7495 257.439 50.7495 257.833V260.083H56.5503C56.763 260.083 56.9732 260.128 57.1671 260.216C57.361 260.303 57.534 260.431 57.6748 260.59C57.8156 260.75 57.9208 260.937 57.9835 261.141C58.0463 261.344 58.0651 261.558 58.0387 261.769L56.9137 270.769C56.8683 271.132 56.6921 271.466 56.418 271.708C56.1439 271.949 55.7909 272.083 55.4253 272.083H43.9995" stroke="white" stroke-width="1.5" stroke-linecap="round" stroke-linejoin="round"/>
<defs>
<filter id="filter0_d_310_1241" x="72.5" y="0.583008" width="96" height="96" filterUnits="userSpaceOnUse" color-interpolation-filters="sRGB">
<feFlood flood-opacity="0" result="BackgroundImageFix"/>
<feColorMatrix in="SourceAlpha" type="matrix" values="0 0 0 0 0 0 0 0 0 0 0 0 0 0 0 0 0 0 127 0" result="hardAlpha"/>
<feOffset/>
<feGaussianBlur stdDeviation="8"/>
<feComposite in2="hardAlpha" operator="out"/>
<feColorMatrix type="matrix" values="0 0 0 0 0 0 0 0 0 0.340061 0 0 0 0 1 0 0 0 0.5 0"/>
<feBlend mode="normal" in2="BackgroundImageFix" result="effect1_dropShadow_310_1241"/>
<feBlend mode="normal" in="SourceGraphic" in2="effect1_dropShadow_310_1241" result="shape"/>
</filter>
<filter id="filter1_d_310_1241" x="216.5" y="360.583" width="96" height="96" filterUnits="userSpaceOnUse" color-interpolation-filters="sRGB">
<feFlood flood-opacity="0" result="BackgroundImageFix"/>
<feColorMatrix in="SourceAlpha" type="matrix" values="0 0 0 0 0 0 0 0 0 0 0 0 0 0 0 0 0 0 127 0" result="hardAlpha"/>
<feOffset/>
<feGaussianBlur stdDeviation="8"/>
<feComposite in2="hardAlpha" operator="out"/>
<feColorMatrix type="matrix" values="0 0 0 0 0 0 0 0 0 0.340061 0 0 0 0 1 0 0 0 0.5 0"/>
<feBlend mode="normal" in2="BackgroundImageFix" result="effect1_dropShadow_310_1241"/>
<feBlend mode="normal" in="SourceGraphic" in2="effect1_dropShadow_310_1241" result="shape"/>
</filter>
<filter id="filter2_d_310_1241" x="144.5" y="144.583" width="96" height="96" filterUnits="userSpaceOnUse" color-interpolation-filters="sRGB">
<feFlood flood-opacity="0" result="BackgroundImageFix"/>
<feColorMatrix in="SourceAlpha" type="matrix" values="0 0 0 0 0 0 0 0 0 0 0 0 0 0 0 0 0 0 127 0" result="hardAlpha"/>
<feOffset/>
<feGaussianBlur stdDeviation="8"/>
<feComposite in2="hardAlpha" operator="out"/>
<feColorMatrix type="matrix" values="0 0 0 0 0.0117647 0 0 0 0 0.964706 0 0 0 0 0.972549 0 0 0 0.5 0"/>
<feBlend mode="normal" in2="BackgroundImageFix" result="effect1_dropShadow_310_1241"/>
<feBlend mode="normal" in="SourceGraphic" in2="effect1_dropShadow_310_1241" result="shape"/>
</filter>
<filter id="filter3_d_310_1241" x="0.5" y="216.583" width="96" height="96" filterUnits="userSpaceOnUse" color-interpolation-filters="sRGB">
<feFlood flood-opacity="0" result="BackgroundImageFix"/>
<feColorMatrix in="SourceAlpha" type="matrix" values="0 0 0 0 0 0 0 0 0 0 0 0 0 0 0 0 0 0 127 0" result="hardAlpha"/>
<feOffset/>
<feGaussianBlur stdDeviation="8"/>
<feComposite in2="hardAlpha" operator="out"/>
<feColorMatrix type="matrix" values="0 0 0 0 0.0117647 0 0 0 0 0.964706 0 0 0 0 0.972549 0 0 0 0.5 0"/>
<feBlend mode="normal" in2="BackgroundImageFix" result="effect1_dropShadow_310_1241"/>
<feBlend mode="normal" in="SourceGraphic" in2="effect1_dropShadow_310_1241" result="shape"/>
</filter>
<linearGradient id="paint0_linear_310_1241" x1="78" y1="42.083" x2="34" y2="42.083" gradientUnits="userSpaceOnUse">
<stop stop-color="#1D2BA1" stop-opacity="0.5"/>
<stop offset="0.559816" stop-color="#1D2BA1" stop-opacity="0"/>
</linearGradient>
<linearGradient id="paint1_linear_310_1241" x1="43" y1="304.583" x2="43" y2="320.083" gradientUnits="userSpaceOnUse">
<stop stop-color="#03F6F8" stop-opacity="0.2"/>
<stop offset="0.559816" stop-color="#03F6F8" stop-opacity="0"/>
</linearGradient>
<linearGradient id="paint2_linear_310_1241" x1="161" y1="42.583" x2="212" y2="42.583" gradientUnits="userSpaceOnUse">
<stop stop-color="#1D2BA1" stop-opacity="0.5"/>
<stop offset="0.559816" stop-color="#1D2BA1" stop-opacity="0"/>
</linearGradient>
<linearGradient id="paint3_linear_310_1241" x1="225" y1="368.583" x2="197" y2="330.083" gradientUnits="userSpaceOnUse">
<stop stop-color="#1D2BA1"/>
<stop offset="0.559816" stop-color="#1D2BA1" stop-opacity="0"/>
</linearGradient>
<linearGradient id="paint4_linear_310_1241" x1="230.5" y1="391.583" x2="197" y2="402.083" gradientUnits="userSpaceOnUse">
<stop stop-color="#1D2BA1"/>
<stop offset="0.559816" stop-color="#1D2BA1" stop-opacity="0"/>
</linearGradient>
<linearGradient id="paint5_linear_310_1241" x1="120.5" y1="16.583" x2="120.5" y2="80.583" gradientUnits="userSpaceOnUse">
<stop stop-color="#1D2BA1"/>
<stop offset="0.245" stop-color="#1D2BA1" stop-opacity="0.15"/>
<stop offset="0.795" stop-color="#1D2BA1" stop-opacity="0.15"/>
<stop offset="1" stop-color="#1D2BA1"/>
</linearGradient>
<linearGradient id="paint6_linear_310_1241" x1="135.5" y1="208.083" x2="115" y2="176.083" gradientUnits="userSpaceOnUse">
<stop stop-color="#03F6F8" stop-opacity="0.2"/>
<stop offset="0.559816" stop-color="#03F6F8" stop-opacity="0"/>
</linearGradient>
<linearGradient id="paint7_linear_310_1241" x1="125" y1="88.583" x2="125" y2="114.083" gradientUnits="userSpaceOnUse">
<stop stop-color="#1D2BA1" stop-opacity="0.5"/>
<stop offset="0.559816" stop-color="#1D2BA1" stop-opacity="0"/>
</linearGradient>
<linearGradient id="paint8_linear_310_1241" x1="227.5" y1="176.083" x2="259" y2="176.083" gradientUnits="userSpaceOnUse">
<stop stop-color="#03F6F8" stop-opacity="0.2"/>
<stop offset="0.559816" stop-color="#03F6F8" stop-opacity="0"/>
</linearGradient>
<linearGradient id="paint9_linear_310_1241" x1="264.5" y1="376.583" x2="264.5" y2="440.583" gradientUnits="userSpaceOnUse">
<stop stop-color="#1D2BA1"/>
<stop offset="0.245" stop-color="#1D2BA1" stop-opacity="0.15"/>
<stop offset="0.795" stop-color="#1D2BA1" stop-opacity="0.15"/>
<stop offset="1" stop-color="#1D2BA1"/>
</linearGradient>
<linearGradient id="paint10_linear_310_1241" x1="192.5" y1="160.583" x2="192.5" y2="224.583" gradientUnits="userSpaceOnUse">
<stop stop-color="#03F6F8" stop-opacity="0.5"/>
<stop offset="0.245" stop-color="#03F6F8" stop-opacity="0.15"/>
<stop offset="0.795" stop-color="#03F6F8" stop-opacity="0.15"/>
<stop offset="1" stop-color="#03F6F8" stop-opacity="0.5"/>
</linearGradient>
<linearGradient id="paint11_linear_310_1241" x1="48.5" y1="232.583" x2="48.5" y2="296.583" gradientUnits="userSpaceOnUse">
<stop stop-color="#03F6F8" stop-opacity="0.5"/>
<stop offset="0.245" stop-color="#03F6F8" stop-opacity="0.15"/>
<stop offset="0.795" stop-color="#03F6F8" stop-opacity="0.15"/>
<stop offset="1" stop-color="#03F6F8" stop-opacity="0.5"/>
</linearGradient>
</defs>
</svg>
