<svg width="426" height="140" viewBox="0 0 426 140" fill="none" xmlns="http://www.w3.org/2000/svg">
<g opacity="0.2">
<path d="M248.166 25.2258L238.63 15L235.229 18.1713L244.765 28.3971L248.166 25.2258Z" fill="#03F6F8" fill-opacity="0.65"/>
<path d="M369.007 5.991L358.63 0L357.305 2.29497L367.682 8.28596L369.007 5.991Z" fill="#03F6F8" fill-opacity="0.35"/>
<path d="M207.144 31.9072L191.63 25L189.739 29.248L205.252 36.1552L207.144 31.9072Z" fill="#03F6F8" fill-opacity="0.75"/>
<path d="M149.449 46.0659L156.63 53L159.165 50.3744L151.985 43.4403L149.449 46.0659Z" fill="#1D2BA1"/>
<path d="M245.345 49.1729L236.63 47L235.989 49.5713L244.704 51.7442L245.345 49.1729Z" fill="#1D2BA1" fill-opacity="0.75"/>
<path d="M189.449 0.68674L183.63 10L187.573 12.4641L193.393 3.15086L189.449 0.68674Z" fill="#03F6F8" fill-opacity="0.35"/>
<path d="M190.885 56.1652L193.63 55L191.813 50.7197L189.068 51.8848L190.885 56.1652Z" fill="#03F6F8"/>
<path d="M219.086 44.2357L217.63 49L222.077 50.3595L223.533 45.5952L219.086 44.2357Z" fill="#1D2BA1" fill-opacity="0.9"/>
<path d="M184.137 42.8664L168.63 39L167.989 41.5713L183.496 45.4377L184.137 42.8664Z" fill="#1D2BA1" fill-opacity="0.6"/>
<path d="M182.498 83.9326L183.63 71L178.998 70.5947L177.866 83.5273L182.498 83.9326Z" fill="#1D2BA1" fill-opacity="0.75"/>
<path d="M52.6949 79.13C53.2831 79.13 53.7599 78.6532 53.7599 78.065C53.7599 77.4768 53.2831 77 52.6949 77C52.1067 77 51.6299 77.4768 51.6299 78.065C51.6299 78.6532 52.1067 79.13 52.6949 79.13Z" fill="#1D2BA1"/>
<path d="M211.695 106.13C212.835 106.13 213.76 105.205 213.76 104.065C213.76 102.925 212.835 102 211.695 102C210.554 102 209.63 102.925 209.63 104.065C209.63 105.205 210.554 106.13 211.695 106.13Z" fill="#03F6F8" fill-opacity="0.45"/>
<path d="M160.695 104.13C161.283 104.13 161.76 103.653 161.76 103.065C161.76 102.477 161.283 102 160.695 102C160.107 102 159.63 102.477 159.63 103.065C159.63 103.653 160.107 104.13 160.695 104.13Z" fill="#1D2BA1"/>
<path d="M131.695 83.13C133.388 83.13 134.76 81.7578 134.76 80.065C134.76 78.3722 133.388 77 131.695 77C130.002 77 128.63 78.3722 128.63 80.065C128.63 81.7578 130.002 83.13 131.695 83.13Z" fill="#03F6F8" fill-opacity="0.65"/>
<path d="M419.195 55.13C420.059 55.13 420.76 54.4293 420.76 53.565C420.76 52.7007 420.059 52 419.195 52C418.331 52 417.63 52.7007 417.63 53.565C417.63 54.4293 418.331 55.13 419.195 55.13Z" fill="#1D2BA1" fill-opacity="0.85"/>
<path d="M294.195 93.13C295.059 93.13 295.76 92.4293 295.76 91.565C295.76 90.7007 295.059 90 294.195 90C293.331 90 292.63 90.7007 292.63 91.565C292.63 92.4293 293.331 93.13 294.195 93.13Z" fill="#03F6F8" fill-opacity="0.65"/>
<path d="M227.695 53.13C228.283 53.13 228.76 52.6532 228.76 52.065C228.76 51.4768 228.283 51 227.695 51C227.107 51 226.63 51.4768 226.63 52.065C226.63 52.6532 227.107 53.13 227.695 53.13Z" fill="#03F6F8" fill-opacity="0.6"/>
<path d="M164.195 33.13C165.611 33.13 166.76 31.9816 166.76 30.565C166.76 29.1484 165.611 28 164.195 28C162.778 28 161.63 29.1484 161.63 30.565C161.63 31.9816 162.778 33.13 164.195 33.13Z" fill="#03F6F8" fill-opacity="0.9"/>
<path d="M122.695 133.13C123.283 133.13 123.76 132.653 123.76 132.065C123.76 131.477 123.283 131 122.695 131C122.107 131 121.63 131.477 121.63 132.065C121.63 132.653 122.107 133.13 122.695 133.13Z" fill="#1D2BA1" fill-opacity="0.9"/>
<path d="M220.195 78.13C221.059 78.13 221.76 77.4293 221.76 76.565C221.76 75.7007 221.059 75 220.195 75C219.331 75 218.63 75.7007 218.63 76.565C218.63 77.4293 219.331 78.13 220.195 78.13Z" fill="#03F6F8" fill-opacity="0.65"/>
<path d="M160.195 14.13C161.059 14.13 161.76 13.4293 161.76 12.565C161.76 11.7007 161.059 11 160.195 11C159.331 11 158.63 11.7007 158.63 12.565C158.63 13.4293 159.331 14.13 160.195 14.13Z" fill="#1D2BA1" fill-opacity="0.75"/>
<path d="M189.983 66.9391L185.856 66.795L183.917 63.1484L186.105 59.646L190.233 59.7901L192.172 63.4367L189.983 66.9391Z" fill="#1D2BA1" fill-opacity="0.6"/>
<path d="M134.754 15.2163L138.002 21.59L130.858 21.2157L134.754 15.2163Z" fill="#1D2BA1"/>
<path d="M7.90757 29.3149L9.1651 32.1394L6.86748 34.2081L4.18994 32.6623L4.83276 29.6381L7.90757 29.3149Z" fill="#1D2BA1" fill-opacity="0.35"/>
<path d="M415.42 9.40086L414.164 4.71117L418.236 2.06689L422.009 5.12231L420.269 9.65494L415.42 9.40086Z" fill="#03F6F8" fill-opacity="0.85"/>
<path d="M176.4 26.6062L176.558 22.0537L180.422 24.4676L176.4 26.6062Z" fill="#1D2BA1" fill-opacity="0.45"/>
<path d="M226.424 4.56766L225.651 0.929553L229.289 0.15625L230.062 3.79436L226.424 4.56766Z" fill="#1D2BA1" fill-opacity="0.6"/>
<path d="M206.216 122.557L212.216 118.661L212.59 125.804L206.216 122.557Z" fill="#1D2BA1" fill-opacity="0.6"/>
<path d="M53.0189 130.522L49.4967 131.4L46.9751 128.789L47.9757 125.299L51.4978 124.421L54.0194 127.032L53.0189 130.522Z" fill="#03F6F8" fill-opacity="0.65"/>
<path d="M159.963 108.781L160.261 113.038L156.304 114.636L153.561 111.367L155.823 107.748L159.963 108.781Z" fill="#1D2BA1" fill-opacity="0.45"/>
<path d="M218.341 128.101L216.144 124.443L218.943 121.223L222.871 122.89L222.499 127.141L218.341 128.101Z" fill="#03F6F8" fill-opacity="0.9"/>
<path d="M142.212 26.498L145.295 28.5778L143.215 31.6613L140.132 29.5815L142.212 26.498Z" fill="#03F6F8"/>
<path d="M302.242 133.683L301.171 137.978L296.876 136.907L297.947 132.612L302.242 133.683Z" fill="#1D2BA1" fill-opacity="0.35"/>
<path d="M205.904 42.726L211.28 41.8745L213.751 46.7242L209.902 50.5729L205.052 48.1019L205.904 42.726Z" fill="#03F6F8" fill-opacity="0.65"/>
<path d="M289.51 75.2879L285.393 72.7151L286.567 68.0042L291.41 67.6655L293.229 72.1671L289.51 75.2879Z" fill="#1D2BA1"/>
<path d="M200.285 58.9048L187.59 58.3163L189.919 51.5527L200.285 58.9048Z" fill="#1D2BA1"/>
</g>
<path d="M162.162 88.186C162.99 88.186 163.662 87.5145 163.662 86.686C163.662 85.8576 162.99 85.186 162.162 85.186V88.186ZM0.75 88.186H162.162V85.186H0.75V88.186Z" fill="url(#paint0_linear_518_943)"/>
<g filter="url(#filter0_f_518_943)">
<path d="M162.162 89.186C163.266 89.186 164.162 88.2906 164.162 87.186C164.162 86.0815 163.266 85.186 162.162 85.186V89.186ZM108.781 89.186H162.162V85.186H108.781V89.186Z" fill="#03F6F8"/>
</g>
<path d="M263.838 100.686C263.01 100.686 262.338 100.014 262.338 99.186C262.338 98.3576 263.01 97.686 263.838 97.686V100.686ZM425.25 100.686H263.838V97.686H425.25V100.686Z" fill="url(#paint1_linear_518_943)"/>
<g filter="url(#filter1_f_518_943)">
<path d="M263.838 97.186C262.734 97.186 261.838 98.0815 261.838 99.186C261.838 100.291 262.734 101.186 263.838 101.186V97.186ZM280.361 97.186H263.838V101.186H280.361V97.186Z" fill="#03F6F8"/>
</g>
<g filter="url(#filter2_d_518_943)">
<path d="M210.172 116.171L226.579 114.421" stroke="url(#paint2_linear_518_943)" stroke-width="2" stroke-linecap="round" stroke-linejoin="round"/>
<path d="M210.172 116.171L226.579 114.421" stroke="url(#paint3_linear_518_943)" stroke-width="2" stroke-linecap="round" stroke-linejoin="round"/>
</g>
<g filter="url(#filter3_d_518_943)">
<path d="M196.907 88.5477C196.642 86.1269 196.857 83.6776 197.54 81.3401C198.223 79.0025 199.361 76.8228 200.888 74.9257C202.415 73.0286 204.301 71.4515 206.438 70.2847C208.576 69.1179 210.923 68.3843 213.344 68.1259C215.766 67.8676 218.215 68.0897 220.55 68.7793C222.886 69.469 225.062 70.6127 226.955 72.145C228.848 73.6773 230.42 75.568 231.581 77.7088C232.742 79.8496 233.469 82.1984 233.72 84.6206C234.7 93.8023 237.189 98.9253 239.191 101.657C239.407 101.948 239.542 102.292 239.582 102.652C239.622 103.013 239.567 103.377 239.421 103.709C239.276 104.042 239.045 104.329 238.753 104.544C238.461 104.759 238.117 104.892 237.757 104.932L197.244 109.254C196.883 109.291 196.519 109.233 196.188 109.085C195.857 108.936 195.57 108.704 195.358 108.41C195.146 108.115 195.015 107.771 194.978 107.41C194.942 107.049 195.001 106.685 195.15 106.354C196.533 103.262 197.886 97.7289 196.907 88.5477Z" fill="url(#paint4_linear_518_943)"/>
<path d="M196.907 88.5477C196.642 86.1269 196.857 83.6776 197.54 81.3401C198.223 79.0025 199.361 76.8228 200.888 74.9257C202.415 73.0286 204.301 71.4515 206.438 70.2847C208.576 69.1179 210.923 68.3843 213.344 68.1259C215.766 67.8676 218.215 68.0897 220.55 68.7793C222.886 69.469 225.062 70.6127 226.955 72.145C228.848 73.6773 230.42 75.568 231.581 77.7088C232.742 79.8496 233.469 82.1984 233.72 84.6206C234.7 93.8023 237.189 98.9253 239.191 101.657C239.407 101.948 239.542 102.292 239.582 102.652C239.622 103.013 239.567 103.377 239.421 103.709C239.276 104.042 239.045 104.329 238.753 104.544C238.461 104.759 238.117 104.892 237.757 104.932L197.244 109.254C196.883 109.291 196.519 109.233 196.188 109.085C195.857 108.936 195.57 108.704 195.358 108.41C195.146 108.115 195.015 107.771 194.978 107.41C194.942 107.049 195.001 106.685 195.15 106.354C196.533 103.262 197.886 97.7289 196.907 88.5477Z" stroke="url(#paint5_linear_518_943)" stroke-width="1.5" stroke-linecap="round" stroke-linejoin="round"/>
</g>
<g filter="url(#filter4_d_518_943)">
<path d="M227.116 62.5059C231.57 64.6952 235.333 68.0727 237.989 72.2656" stroke="url(#paint6_linear_518_943)" stroke-width="2" stroke-linecap="round" stroke-linejoin="round"/>
<path d="M227.116 62.5059C231.57 64.6952 235.333 68.0727 237.989 72.2656" stroke="url(#paint7_linear_518_943)" stroke-width="2" stroke-linecap="round" stroke-linejoin="round"/>
</g>
<g filter="url(#filter5_d_518_943)">
<path d="M190.126 77.3712C191.838 72.7124 194.803 68.6172 198.695 65.5376" stroke="url(#paint8_linear_518_943)" stroke-width="2" stroke-linecap="round" stroke-linejoin="round"/>
<path d="M190.126 77.3712C191.838 72.7124 194.803 68.6172 198.695 65.5376" stroke="url(#paint9_linear_518_943)" stroke-width="2" stroke-linecap="round" stroke-linejoin="round"/>
</g>
<defs>
<filter id="filter0_f_518_943" x="104.781" y="81.186" width="63.3809" height="12" filterUnits="userSpaceOnUse" color-interpolation-filters="sRGB">
<feFlood flood-opacity="0" result="BackgroundImageFix"/>
<feBlend mode="normal" in="SourceGraphic" in2="BackgroundImageFix" result="shape"/>
<feGaussianBlur stdDeviation="2" result="effect1_foregroundBlur_518_943"/>
</filter>
<filter id="filter1_f_518_943" x="257.838" y="93.186" width="26.5229" height="12" filterUnits="userSpaceOnUse" color-interpolation-filters="sRGB">
<feFlood flood-opacity="0" result="BackgroundImageFix"/>
<feBlend mode="normal" in="SourceGraphic" in2="BackgroundImageFix" result="shape"/>
<feGaussianBlur stdDeviation="2" result="effect1_foregroundBlur_518_943"/>
</filter>
<filter id="filter2_d_518_943" x="193.172" y="97.4209" width="50.4072" height="35.75" filterUnits="userSpaceOnUse" color-interpolation-filters="sRGB">
<feFlood flood-opacity="0" result="BackgroundImageFix"/>
<feColorMatrix in="SourceAlpha" type="matrix" values="0 0 0 0 0 0 0 0 0 0 0 0 0 0 0 0 0 0 127 0" result="hardAlpha"/>
<feOffset/>
<feGaussianBlur stdDeviation="8"/>
<feComposite in2="hardAlpha" operator="out"/>
<feColorMatrix type="matrix" values="0 0 0 0 0.0117647 0 0 0 0 0.964706 0 0 0 0 0.972549 0 0 0 0.5 0"/>
<feBlend mode="normal" in2="BackgroundImageFix" result="effect1_dropShadow_518_943"/>
<feBlend mode="normal" in="SourceGraphic" in2="effect1_dropShadow_518_943" result="shape"/>
</filter>
<filter id="filter3_d_518_943" x="178.218" y="51.2715" width="78.127" height="74.7437" filterUnits="userSpaceOnUse" color-interpolation-filters="sRGB">
<feFlood flood-opacity="0" result="BackgroundImageFix"/>
<feColorMatrix in="SourceAlpha" type="matrix" values="0 0 0 0 0 0 0 0 0 0 0 0 0 0 0 0 0 0 127 0" result="hardAlpha"/>
<feOffset/>
<feGaussianBlur stdDeviation="8"/>
<feComposite in2="hardAlpha" operator="out"/>
<feColorMatrix type="matrix" values="0 0 0 0 0.113725 0 0 0 0 0.168627 0 0 0 0 0.631373 0 0 0 1 0"/>
<feBlend mode="normal" in2="BackgroundImageFix" result="effect1_dropShadow_518_943"/>
<feBlend mode="normal" in="SourceGraphic" in2="effect1_dropShadow_518_943" result="shape"/>
</filter>
<filter id="filter4_d_518_943" x="210.116" y="45.5059" width="44.873" height="43.7598" filterUnits="userSpaceOnUse" color-interpolation-filters="sRGB">
<feFlood flood-opacity="0" result="BackgroundImageFix"/>
<feColorMatrix in="SourceAlpha" type="matrix" values="0 0 0 0 0 0 0 0 0 0 0 0 0 0 0 0 0 0 127 0" result="hardAlpha"/>
<feOffset/>
<feGaussianBlur stdDeviation="8"/>
<feComposite in2="hardAlpha" operator="out"/>
<feColorMatrix type="matrix" values="0 0 0 0 0.0117647 0 0 0 0 0.964706 0 0 0 0 0.972549 0 0 0 0.5 0"/>
<feBlend mode="normal" in2="BackgroundImageFix" result="effect1_dropShadow_518_943"/>
<feBlend mode="normal" in="SourceGraphic" in2="effect1_dropShadow_518_943" result="shape"/>
</filter>
<filter id="filter5_d_518_943" x="173.125" y="48.5376" width="42.5693" height="45.834" filterUnits="userSpaceOnUse" color-interpolation-filters="sRGB">
<feFlood flood-opacity="0" result="BackgroundImageFix"/>
<feColorMatrix in="SourceAlpha" type="matrix" values="0 0 0 0 0 0 0 0 0 0 0 0 0 0 0 0 0 0 127 0" result="hardAlpha"/>
<feOffset/>
<feGaussianBlur stdDeviation="8"/>
<feComposite in2="hardAlpha" operator="out"/>
<feColorMatrix type="matrix" values="0 0 0 0 0.0117647 0 0 0 0 0.964706 0 0 0 0 0.972549 0 0 0 0.5 0"/>
<feBlend mode="normal" in2="BackgroundImageFix" result="effect1_dropShadow_518_943"/>
<feBlend mode="normal" in="SourceGraphic" in2="effect1_dropShadow_518_943" result="shape"/>
</filter>
<linearGradient id="paint0_linear_518_943" x1="162.162" y1="88.686" x2="160.523" y2="72.5555" gradientUnits="userSpaceOnUse">
<stop stop-color="#03F6F8"/>
<stop offset="1" stop-color="#1D2BA1" stop-opacity="0"/>
</linearGradient>
<linearGradient id="paint1_linear_518_943" x1="263.838" y1="101.186" x2="265.477" y2="85.0555" gradientUnits="userSpaceOnUse">
<stop stop-color="#03F6F8"/>
<stop offset="1" stop-color="#1D2BA1" stop-opacity="0"/>
</linearGradient>
<linearGradient id="paint2_linear_518_943" x1="210.827" y1="116.039" x2="219.799" y2="123.328" gradientUnits="userSpaceOnUse">
<stop stop-color="#03F6F8"/>
<stop offset="1" stop-color="#1D2BA1"/>
</linearGradient>
<linearGradient id="paint3_linear_518_943" x1="218.375" y1="115.296" x2="218.481" y2="116.291" gradientUnits="userSpaceOnUse">
<stop stop-color="#03F6F8" stop-opacity="0.5"/>
<stop offset="0.245" stop-color="#03F6F8" stop-opacity="0.15"/>
<stop offset="0.795" stop-color="#03F6F8" stop-opacity="0.15"/>
<stop offset="1" stop-color="#03F6F8" stop-opacity="0.5"/>
</linearGradient>
<linearGradient id="paint4_linear_518_943" x1="192.58" y1="67.8778" x2="237.029" y2="66.2516" gradientUnits="userSpaceOnUse">
<stop stop-color="#03F6F8"/>
<stop offset="1" stop-color="#1D2BA1"/>
</linearGradient>
<linearGradient id="paint5_linear_518_943" x1="192.58" y1="67.8778" x2="237.029" y2="66.2516" gradientUnits="userSpaceOnUse">
<stop stop-color="#03F6F8"/>
<stop offset="1" stop-color="#1D2BA1"/>
</linearGradient>
<linearGradient id="paint6_linear_518_943" x1="227.436" y1="61.7893" x2="237.126" y2="61.2906" gradientUnits="userSpaceOnUse">
<stop stop-color="#03F6F8"/>
<stop offset="1" stop-color="#1D2BA1"/>
</linearGradient>
<linearGradient id="paint7_linear_518_943" x1="231.977" y1="61.9874" x2="233.128" y2="72.7841" gradientUnits="userSpaceOnUse">
<stop stop-color="#03F6F8" stop-opacity="0.5"/>
<stop offset="0.245" stop-color="#03F6F8" stop-opacity="0.15"/>
<stop offset="0.795" stop-color="#03F6F8" stop-opacity="0.15"/>
<stop offset="1" stop-color="#03F6F8" stop-opacity="0.5"/>
</linearGradient>
<linearGradient id="paint8_linear_518_943" x1="189.294" y1="65.8579" x2="198.984" y2="65.3593" gradientUnits="userSpaceOnUse">
<stop stop-color="#03F6F8"/>
<stop offset="1" stop-color="#1D2BA1"/>
</linearGradient>
<linearGradient id="paint9_linear_518_943" x1="193.835" y1="66.056" x2="194.986" y2="76.8527" gradientUnits="userSpaceOnUse">
<stop stop-color="#03F6F8" stop-opacity="0.5"/>
<stop offset="0.245" stop-color="#03F6F8" stop-opacity="0.15"/>
<stop offset="0.795" stop-color="#03F6F8" stop-opacity="0.15"/>
<stop offset="1" stop-color="#03F6F8" stop-opacity="0.5"/>
</linearGradient>
</defs>
</svg>
