<svg width="24" height="25" viewBox="0 0 24 25" fill="none" xmlns="http://www.w3.org/2000/svg">
<path d="M7.5 12.583H11.25M15 17.833H13.5C12.9033 17.833 12.331 17.596 11.909 17.174C11.4871 16.752 11.25 16.1797 11.25 15.583V9.58301C11.25 8.98627 11.4871 8.41397 11.909 7.99202C12.331 7.57006 12.9033 7.33301 13.5 7.33301H15M3 9.95801H6.75C7.16421 9.95801 7.5 10.2938 7.5 10.708V14.458C7.5 14.8722 7.16421 15.208 6.75 15.208H3C2.58579 15.208 2.25 14.8722 2.25 14.458V10.708C2.25 10.2938 2.58579 9.95801 3 9.95801ZM15.75 4.33301H20.25C20.6642 4.33301 21 4.66879 21 5.08301V9.58301C21 9.99722 20.6642 10.333 20.25 10.333H15.75C15.3358 10.333 15 9.99722 15 9.58301V5.08301C15 4.66879 15.3358 4.33301 15.75 4.33301ZM15.75 14.833H20.25C20.6642 14.833 21 15.1688 21 15.583V20.083C21 20.4972 20.6642 20.833 20.25 20.833H15.75C15.3358 20.833 15 20.4972 15 20.083V15.583C15 15.1688 15.3358 14.833 15.75 14.833Z" stroke="#03F6F8" stroke-width="1.5" stroke-linecap="round" stroke-linejoin="round"/>
</svg>
