<svg width="24" height="25" viewBox="0 0 24 25" fill="none" xmlns="http://www.w3.org/2000/svg">
<path d="M12 10.7083C14.0711 10.7083 15.75 9.02932 15.75 6.95825C15.75 4.88718 14.0711 3.20825 12 3.20825C9.92893 3.20825 8.25 4.88718 8.25 6.95825C8.25 9.02932 9.92893 10.7083 12 10.7083Z" stroke="#03F6F8" stroke-width="1.5" stroke-linecap="round" stroke-linejoin="round"/>
<path d="M17.625 20.4583C19.6961 20.4583 21.375 18.7793 21.375 16.7083C21.375 14.6372 19.6961 12.9583 17.625 12.9583C15.5539 12.9583 13.875 14.6372 13.875 16.7083C13.875 18.7793 15.5539 20.4583 17.625 20.4583Z" stroke="#03F6F8" stroke-width="1.5" stroke-linecap="round" stroke-linejoin="round"/>
<path d="M6.375 20.4583C8.44607 20.4583 10.125 18.7793 10.125 16.7083C10.125 14.6372 8.44607 12.9583 6.375 12.9583C4.30393 12.9583 2.625 14.6372 2.625 16.7083C2.625 18.7793 4.30393 20.4583 6.375 20.4583Z" stroke="#03F6F8" stroke-width="1.5" stroke-linecap="round" stroke-linejoin="round"/>
</svg>
