<svg width="24" height="25" viewBox="0 0 24 25" fill="none" xmlns="http://www.w3.org/2000/svg">
<path d="M8.25 13.2276L16.6797 20.6458C16.7773 20.7316 16.8954 20.7906 17.0226 20.8171C17.1498 20.8435 17.2817 20.8364 17.4054 20.7965C17.529 20.7567 17.6402 20.6854 17.728 20.5896C17.8158 20.4938 17.8772 20.3769 17.9063 20.2503L21.4325 4.86284C21.463 4.7298 21.4566 4.59097 21.414 4.46129C21.3715 4.33162 21.2943 4.21602 21.1909 4.12697C21.0874 4.03791 20.9617 3.97876 20.8271 3.95591C20.6925 3.93305 20.5543 3.94734 20.4273 3.99725L3.12505 10.7945C2.97426 10.8538 2.8467 10.9603 2.76147 11.098C2.67624 11.2358 2.63791 11.3975 2.65223 11.5589C2.66654 11.7202 2.73273 11.8727 2.84088 11.9933C2.94903 12.1139 3.09334 12.1963 3.2522 12.228L8.25 13.2276Z" stroke="#03F6F8" stroke-width="1.5" stroke-linecap="round" stroke-linejoin="round"/>
<path d="M8.25 13.2274L21.0105 4.01147" stroke="#03F6F8" stroke-width="1.5" stroke-linecap="round" stroke-linejoin="round"/>
<path d="M12.46 16.9324L9.53033 19.8621C9.42544 19.967 9.2918 20.0384 9.14632 20.0673C9.00083 20.0963 8.85003 20.0814 8.71299 20.0247C8.57594 19.9679 8.45881 19.8718 8.3764 19.7484C8.29399 19.6251 8.25 19.4801 8.25 19.3317V13.2275" stroke="#03F6F8" stroke-width="1.5" stroke-linecap="round" stroke-linejoin="round"/>
</svg>
